# xmcd
#
# Track frame offsets:
#       150
#       24081
#       44277
#       66544
#       89556
#       114416
#       141573
#       164709
#       185890
#
# Disc length: 2837 seconds
#
# Revision: 1
# Processed by: cddbd v1.5.2PL0 Copyright (c) Steve Scherf et al.
# Submitted via: FreeDbEdit v0.1
#
DISCID=880b1309
DTITLE=Ron Griffin - It's What It Is
DYEAR=2003
DGENRE=Jazz
TTITLE0=Grovgroov
TTITLE1=Refreshin
TTITLE2=Seventeenie
TTITLE3=All I Need Is You
TTITLE4=Aqueelah
TTITLE5=It's What It Is
TTITLE6=B Here
TTITLE7=Nocturnal Cruise
TTITLE8=Tutee
EXTD=YEAR: 2003
EXTT0=
EXTT1=
EXTT2=
EXTT3=
EXTT4=
EXTT5=
EXTT6=
EXTT7=
EXTT8=
PLAYORDER=
